<svg
  height="21"
  viewBox="0 0 21 21"
  width="21"
  xmlns="http://www.w3.org/2000/svg"
>
  <g
    fill="none"
    fill-rule="evenodd"
    stroke="#2a2e3b"
    stroke-linecap="round"
    transform="translate(4 3)"
  >
    <path
      d="m7.061 6.732.707 3.536-3.536-.707z"
      fill="#2a2e3b"
      transform="matrix(-.70710678 .70710678 -.70710678 -.70710678 16.253048 10.267767)"
    />
    <g stroke-linejoin="round">
      <path d="m5.5 8.5h9" />
      <path
        d="m4.50276494 1.99784965h-3.50491525c-.55228475 0-1 .44771525-1 1 0 .00081971.00000101.00163942.00000302.00245913l.00491223 1.99754087m0 6.00000005-.00491223 1.9975408c-.00135814.5522831.44525477 1.001098.99753785 1.0024561.00081971.000002.00163942.0000031.00245913.0000031h10.99753791c.5520446-.000615.9996604-.4479557 1.0006147-.9999999l.0061479-10.00000033c.0009541-.55228427-.4464858-1.00027469-.9987704-1.00061422-.000205-.00000013-.0004099-.00000019-.0006148.0006144h-2.50000006"
        transform="matrix(0 1 -1 0 14.498 1.498)"
      />
      <path
        d="m4.5.5h4c.55228475 0 1 .44771525 1 1s-.44771525 1-1 1h-4c-.55228475 0-1-.44771525-1-1s.44771525-1 1-1z"
      />
    </g>
  </g>
</svg>
