<svg height="21" viewBox="0 0 21 21" width="21" xmlns="http://www.w3.org/2000/svg"><g fill="none" fill-rule="evenodd" stroke="#2a2e3b" stroke-linecap="round" stroke-linejoin="round" transform="translate(2 2)"><path d="m.5 3.5v-1c0-1.1045695.8954305-2 2-2h1"/><path d="m.5 16.5v-1c0-1.1045695.8954305-2 2-2h1" transform="matrix(0 -1 1 0 -13 17)"/><path d="m13.5 3.5v-1c0-1.1045695.8954305-2 2-2h1" transform="matrix(-1 0 0 1 30 0)"/><path d="m13.5 16.5v-1c0-1.1045695.8954305-2 2-2h1" transform="matrix(0 -1 -1 0 30 30)"/><path d="m5.5.5h2"/><path d="m9.5.5h2"/><path d="m5.5 16.5h2"/><path d="m9.5 16.5h2"/><path d="m16.5 5.498v2.002"/><path d="m16.5 9.498v2.002"/><path d="m.5 5.498v2.002"/><path d="m.5 9.498v2.002"/></g></svg>