<svg height="21" viewBox="0 0 21 21" width="21" xmlns="http://www.w3.org/2000/svg"><g fill="none" fill-rule="evenodd" stroke="#2a2e3b" stroke-linecap="round" stroke-linejoin="round" transform="translate(1 1)"><path d="m15.864 3.136-12.728 12.728" transform="matrix(.70710678 .70710678 -.70710678 .70710678 9.5 -3.935029)"/><path d="m3.136 3.136 12.728 12.728" transform="matrix(.70710678 .70710678 -.70710678 .70710678 9.5 -3.935029)"/><path d="m15.5 6.5 3 3-3 3" transform="matrix(1 0 0 -1 0 19)"/><path d="m.5 6.5 3 3-3 3" transform="matrix(-1 0 0 -1 4 19)"/><path d="m12.5.5-3 3-3-3" transform="matrix(-1 0 0 -1 19 4)"/><path d="m12.5 15.5-3 3-3-3" transform="matrix(-1 0 0 1 19 0)"/></g></svg>