<svg height="21" viewBox="0 0 21 21" width="21" xmlns="http://www.w3.org/2000/svg"><g fill="none" fill-rule="evenodd" transform="translate(2 3)"><path d="m11.4540585.95405845h3.5857864c1.1045695 0 2 .8954305 2 2v3.58578644c0 .26521649-.1053568.5195704-.2928932.70710678l-7.29289325 7.29289323c-.78104858.7810486-2.04737854.7810486-2.82842712 0l-3.17157288-3.1715729c-.78104858-.7810486-.78104858-2.04737852 0-2.82842711l7.29289325-7.29289322c.1875364-.18753638.4418903-.29289322.7071068-.29289322z" stroke="#2a2e3b" stroke-linecap="round" stroke-linejoin="round"/><path d="m6.03984489 13.9540585-.90290911.6019394c-.91905738.6127049-2.16079606.3643571-2.77350098-.5547002-.08486292-.1272944-.15483981-.2639057-.20855777-.4071535l-1.53002215-4.08005911c-.3389108-.90376213.01599891-1.92063198.84366684-2.41723274l8.57132318-5.1427939" stroke="#2a2e3b" stroke-linecap="round" stroke-linejoin="round"/><rect fill="#2a2e3b" height="2" rx="1" width="2" x="13.54" y="2.454"/></g></svg>