<svg height="21" viewBox="0 0 21 21" width="21" xmlns="http://www.w3.org/2000/svg"><path d="m2.42575356.50254623 8.09559774-.00228582c.5209891-.0001471.9548019.39973171.9969972.91900928l.8938128 10.99973961c.0447299.5504704-.3652538 1.0329756-.9157242 1.0777056-.0269414.0021892-.0539605.0032851-.0809907.0032851h-9.83555122c-.55228475 0-1-.4477152-1-1 0-.0255993.00098299-.0511891.00294679-.076713l.84614072-10.99745378c.0400765-.52088193.4743495-.92313949.99677087-.92328699zm7.07424644 3.64272599v1c0 1.10456949-1.8954305 1.35472778-3 1.35472778s-3-.3954305-3-1.5v-1" fill="none" stroke="#2a2e3b" stroke-linecap="round" stroke-linejoin="round" transform="translate(4 4)"/></svg>