<svg height="21" viewBox="0 0 21 21" width="21" xmlns="http://www.w3.org/2000/svg"><g fill="none" fill-rule="evenodd" transform="translate(2 6)"><path d="m2.5.5h10c1.1045695 0 2 .8954305 2 2v3c0 1.1045695-.8954305 2-2 2h-10c-1.1045695 0-2-.8954305-2-2v-3c0-1.1045695.8954305-2 2-2z" stroke="#2a2e3b" stroke-linecap="round" stroke-linejoin="round"/><path d="m3 2h9c.5522847 0 1 .44771525 1 1v2c0 .55228475-.4477153 1-1 1h-9c-.55228475 0-1-.44771525-1-1v-2c0-.55228475.44771525-1 1-1z" fill="#2a2e3b"/><path d="m16.5 2.5v3" stroke="#2a2e3b" stroke-linecap="round" stroke-linejoin="round"/></g></svg>