<svg height="21" viewBox="0 0 21 21" width="21" xmlns="http://www.w3.org/2000/svg"><g fill="none" fill-rule="evenodd" stroke="currentColor" stroke-linecap="round" stroke-linejoin="round" transform="translate(3 1)"><path d="m12.4997505 6.58452405c0 1.90773631.5184778 3.77960555 1.5 5.41547595.4690475.7817458.2155554 1.795714-.5661903 2.2647615-.2565465.1539279-.5501036.2352385-.8492856.2352385h-10.16904812c-.91166441 0-1.65071443-.73905-1.65071443-1.6507144 0-.299182.08131061-.5927392.23523848-.8492856.98152223-1.6358704 1.5-3.50773964 1.5-5.41547595v-1.08452405c0-2.209139 1.790861-4 4-4h2c.80352907 0 1.55172027.23692942 2.17852347.64473803"/><path d="m7.5 4.5h2l-2 3h2"/><path d="m11.5.5h3l-3 4h3"/><path d="m5 17.5c.66666667-1 1.5-1.5 2.5-1.5s1.83333333.5 2.5 1.5" transform="matrix(-1 0 0 -1 15 33.5)"/></g></svg>