<svg height="21" viewBox="0 0 21 21" width="21" xmlns="http://www.w3.org/2000/svg"><g fill="none" fill-rule="evenodd" stroke="currentColor" stroke-linecap="round" stroke-linejoin="round" transform="translate(2 5)"><path d="m16.5 1.59090909c-1.3333333-.72727273-2.6666667-1.09090909-4-1.09090909s-2.66666667.36363636-4 1.09090909v9.90909091c1.33333333-.6666667 2.6666667-1 4-1s2.6666667.3333333 4 1z"/><path d="m14.5559265 2.78819322c-.6853088-.19212881-1.3706177-.28819322-2.0559265-.28819322s-1.3706177.09606441-2.0559265.28819322m4.111853 2c-.6853088-.19212881-1.3706177-.28819322-2.0559265-.28819322s-1.3706177.09606441-2.0559265.28819322m4.111853 2c-.6853088-.19212881-1.3706177-.28819322-2.0559265-.28819322s-1.3706177.09606441-2.0559265.28819322m4.111853 2c-.6853088-.19212881-1.3706177-.28819322-2.0559265-.28819322s-1.3706177.09606441-2.0559265.28819322m-3.88814699-6c-.68530883-.19212881-1.37061767-.28819322-2.05592651-.28819322s-1.37061768.09606441-2.05592651.28819322m4.11185302 2c-.68530883-.19212881-1.37061767-.28819322-2.05592651-.28819322s-1.37061768.09606441-2.05592651.28819322m4.11185302 2c-.68530883-.19212881-1.37061767-.28819322-2.05592651-.28819322s-1.37061768.09606441-2.05592651.28819322m4.11185302 2c-.68530883-.19212881-1.37061767-.28819322-2.05592651-.28819322s-1.37061768.09606441-2.05592651.28819322"/><path d="m8.5 1.59090909c-1.33333333-.72727273-2.66666667-1.09090909-4-1.09090909s-2.66666667.36363636-4 1.09090909v9.90909091c1.33333333-.6666667 2.66666667-1 4-1s2.66666667.3333333 4 1z"/></g></svg>