<svg height="21" viewBox="0 0 21 21" width="21" xmlns="http://www.w3.org/2000/svg"><g fill="none" fill-rule="evenodd" stroke="currentColor" stroke-linecap="round" stroke-linejoin="round" transform="translate(2 3)"><path d="m16.5 11.5v-9c0-1.1045695-.8954305-2-2-2h-12c-1.1045695 0-2 .8954305-2 2v9c0 1.1045695.8954305 2 2 2h12c1.1045695 0 2-.8954305 2-2z"/><path d="m14.5 10.5v-3c0-.55228475-.4477153-1-1-1h-10c-.55228475 0-1 .44771525-1 1v3c0 .5522847.44771525 1 1 1h10c.5522847 0 1-.4477153 1-1z"/><path d="m6.5 3.498h8"/><path d="m2.5 3.5h2"/></g></svg>