<svg height="21" viewBox="0 0 21 21" width="21" xmlns="http://www.w3.org/2000/svg"><g fill="none" fill-rule="evenodd" stroke="currentColor" stroke-linecap="round" stroke-linejoin="round" transform="translate(2 3)"><path d="m16.5 11.5v-9c0-1.1045695-.8954305-2-2-2h-12c-1.1045695 0-2 .8954305-2 2v9c0 1.1045695.8954305 2 2 2h12c1.1045695 0 2-.8954305 2-2z"/><path d="m6.5 10.5v-7c0-.55228475-.44771525-1-1-1h-2c-.55228475 0-1 .44771525-1 1v7c0 .5522847.44771525 1 1 1h2c.55228475 0 1-.4477153 1-1zm8-6.00000052v-1c0-.55228475-.4477153-1-1-1h-4c-.55228475 0-1 .44771525-1 1v1c0 .55228475.44771525 1 1 1h4c.5522847 0 1-.44771525 1-1zm0 6.00000052v-2c0-.55228475-.4477153-1-1-1h-4c-.55228475 0-1 .44771525-1 1v2c0 .5522847.44771525 1 1 1h4c.5522847 0 1-.4477153 1-1z"/></g></svg>