<svg height="21" viewBox="0 0 21 21" width="21" xmlns="http://www.w3.org/2000/svg"><g fill="none" fill-rule="evenodd" transform="translate(2 4)"><path d="m6.5 2.5h8c1.1045695 0 2 .8954305 2 2v6c0 .5586494-.2290469 1.063802-.5983542 1.4266713m-2.4016458.5733287h-11c-1.1045695 0-2-.8954305-2-2v-6c0-1.1045695.8954305-2 2-2h1" stroke="currentColor" stroke-linecap="round" stroke-linejoin="round"/><path d="m1.5.5 14 14" stroke="currentColor" stroke-linecap="round" stroke-linejoin="round"/><path d="m15 5c0-.55228475-.4477153-1-1-1s-1 .44771525-1 1 .4477153 1 1 1 1-.44771525 1-1z" fill="currentColor"/><path d="m6.21451797 5.55656756c-.44560472.52352158-.71451797 1.20207298-.71451797 1.94343244 0 1.65685425 1.34314575 3 3 3 .76116342 0 1.45611838-.2834721 1.9850534-.75060483m1.0149466-2.24939517c0-1.65685425-1.3431458-3-3-3m-1-4h2c.5522847 0 1 .44771525 1 1v1h-4v-1c0-.55228475.44771525-1 1-1z" stroke="currentColor" stroke-linecap="round" stroke-linejoin="round"/></g></svg>