<svg height="21" viewBox="0 0 21 21" width="21" xmlns="http://www.w3.org/2000/svg"><g fill="none" fill-rule="evenodd" stroke="currentColor" stroke-linecap="round" stroke-linejoin="round" transform="translate(2 3.8)"><path d="m5.53930664 1.7 1.03930664-1h3.92016602l1.9194336 2h2.0817871c1.1045695 0 2 .8954305 2 2v6c0 .5021261-.1850424.9610332-.4906558 1.3122498m-2.5093442.6877502h-11c-1.1045695 0-2-.8954305-2-2v-6c0-1.1045695.8954305-2 2-2h1"/><path d="m1.5.7 14 14"/><path d="m6.3057638 5.65417596c-.49988337.53591416-.8057638 1.255148-.8057638 2.04582404 0 1.65685425 1.34314575 3 3 3 .77231532 0 1.47646791-.2918393 2.0081946-.77125485m.9918054-2.22874515c0-1.65685425-1.3431458-3-3-3"/></g></svg>