<svg height="21" viewBox="0 0 21 21" width="21" xmlns="http://www.w3.org/2000/svg"><g fill="none" fill-rule="evenodd" stroke="currentColor" stroke-linecap="round" stroke-linejoin="round" transform="translate(2 4)"><path d="m.5 10.5v-6c0-1.1045695.8954305-2 2-2h2l2.07861328-2h3.92016602l1.9194336 2h2.0817871c1.1045695 0 2 .8954305 2 2v6c0 1.1045695-.8954305 2-2 2h-12c-1.1045695 0-2-.8954305-2-2z"/><path d="m11.5 7.5c0-1.65685425-1.3431458-3-3-3-1.65685425 0-3 1.34314575-3 3s1.34314575 3 3 3c1.6568542 0 3-1.34314575 3-3z"/></g></svg>