<svg height="21" viewBox="0 0 21 21" width="21" xmlns="http://www.w3.org/2000/svg"><path d="m2.49999999 1.5h-1c-.55228475 0-1 .44771525-1 1v8c0 .5522847.44771525 1 1 1h1c.55228475 0 1-.4477153 1-1v-8c0-.55228475-.44771525-1-1-1zm13.00000001 0h-1c-.5522848 0-1 .44771525-1 1v8c0 .5522847.4477152 1 1 1h1c.5522847 0 1-.4477153 1-1v-8c0-.55228475-.4477153-1-1-1zm-5-1h-4.00000001c-.55228475 0-1 .44771525-1 1v10c0 .5522847.44771525 1 1 1h4.00000001c.5522847 0 1-.4477153 1-1v-10c0-.55228475-.4477153-1-1-1z" fill="none" stroke="currentColor" stroke-linecap="round" stroke-linejoin="round" transform="translate(2 4)"/></svg>