<svg height="21" viewBox="0 0 21 21" width="21" xmlns="http://www.w3.org/2000/svg"><g fill="none" fill-rule="evenodd" transform="translate(2 2)"><circle cx="8.5" cy="8.5" r="8" stroke="currentColor" stroke-linecap="round" stroke-linejoin="round"/><path d="m8.5 9.5c.5 0 1-.5 1-1s-.5-1-1-1-.99884033.5-.99884033 1 .49884033 1 .99884033 1zm-4 0c.5 0 1-.5 1-1s-.5-1-1-1-.99884033.5-.99884033 1 .49884033 1 .99884033 1zm8 0c.5 0 1-.5 1-1s-.5-1-1-1-.9988403.5-.9988403 1 .4988403 1 .9988403 1z" fill="currentColor"/></g></svg>