<svg height="21" viewBox="0 0 21 21" width="21" xmlns="http://www.w3.org/2000/svg"><g fill="none" fill-rule="evenodd" stroke="currentColor" stroke-linecap="round" stroke-linejoin="round" transform="translate(2 4)"><path d="m6.7387371 1.81902812c.54779873-.20621538 1.1413564-.31902812 1.7612629-.31902812 2.7614237 0 5 2.23857625 5 5 0 .48543539-.0691781.95471338-.1982137 1.39851335.3339576-.25026476.748773-.39851335 1.1982137-.39851335 1.1045695 0 2 .8954305 2 2 0 .7252268-.3860055 1.3602973-.963771 1.7109657m-2.103856.2890343c-2.7134953 0-9.22769921 0-9.932373 0-1.65685425 0-3-1.3431458-3-3 0-1.65685425 1.34314575-3 3-3 .03335948 0 .06659179.00054449.09968852.00162508.19090431-.94207596.64666454-1.78803816 1.28619295-2.45679888"/><path d="m2 0 13 13.071"/></g></svg>