<svg height="21" viewBox="0 0 21 21" width="21" xmlns="http://www.w3.org/2000/svg"><g fill="none" fill-rule="evenodd" stroke="currentColor" stroke-linecap="round" stroke-linejoin="round" transform="translate(2 2)"><path d="m12.5 14.5v-8c0-1.1045695-.8954305-2-2-2h-8c-1.1045695 0-2 .8954305-2 2v8c0 1.1045695.8954305 2 2 2h8c1.1045695 0 2-.8954305 2-2z"/><path d="m12.5 12.5h2c1.1045695 0 2-.8954305 2-2v-7.99654173c0-1.1045695-.8954305-2-2-2-.0011518 0-.0023035 0-.0034553 0l-7.99999998.01382415c-1.10321873.00190597-1.99654472.89677664-1.99654472 1.99999701v1.98272057"/><path d="m6.5 7.5v6"/><path d="m6.5 7.5v6" transform="matrix(0 1 -1 0 17 4)"/></g></svg>