<svg height="21" viewBox="0 0 21 21" width="21" xmlns="http://www.w3.org/2000/svg"><g fill="none" fill-rule="evenodd" stroke="currentColor" stroke-linecap="round" stroke-linejoin="round" transform="translate(1 4)"><path d="m13.5 12.5v-6c0-1.1045695-.8954305-2-2-2h-9c-1.1045695 0-2 .8954305-2 2v6c0 1.1045695.8954305 2 2 2h9c1.1045695 0 2-.8954305 2-2z"/><path d="m15.5 12.5v-6.99481259c0-1.65685425-1.3431458-3-3-3-.0017276 0-.0034553 0-.0051829 0l-8.9948171.01554432"/><path d="m17.5 10.5v-5.99308345c0-2.209139-1.790861-4-4-4-.0023035 0-.004607 0-.0069106 0l-7.9930894.01381519"/></g></svg>