<svg height="21" viewBox="0 0 21 21" width="21" xmlns="http://www.w3.org/2000/svg"><g fill="none" fill-rule="evenodd" stroke="currentColor" stroke-linecap="round" stroke-linejoin="round" transform="translate(2 5)"><path d="m8.5 11c3.1296136 0 5.9629469-1.83333333 8.5-5.5-2.5370531-3.66666667-5.3703864-5.5-8.5-5.5-3.12961358 0-5.96294692 1.83333333-8.5 5.5 2.53705308 3.66666667 5.37038642 5.5 8.5 5.5z"/><path d="m8.5 2c.18463928 0 .36593924.01429736.54285316.04184538-.02850842.148891-.04285316.30184762-.04285316.45815462 0 1.38071187 1.1192881 2.5 2.5 2.5.156307 0 .3092636-.01434474.4576252-.04178957.0280774.17585033.0423748.35715029.0423748.54178957 0 1.93299662-1.5670034 3.5-3.5 3.5-1.93299662 0-3.5-1.56700338-3.5-3.5s1.56700338-3.5 3.5-3.5z"/></g></svg>