<svg height="21" viewBox="0 0 21 21" width="21" xmlns="http://www.w3.org/2000/svg"><g fill="none" fill-rule="evenodd" stroke="currentColor" stroke-linecap="round" stroke-linejoin="round" transform="translate(2 4)"><path d="m4.5 0c.55228475 0 1 .44771525 1 1v2c0 .55228475-.44771525 1-1 1s-1-.44771525-1-1v-2c0-.55228475.44771525-1 1-1z"/><path d="m16.5 2h-11"/><path d="m3.5 2h-3"/><path d="m4.5 10c.55228475 0 1 .4477153 1 1v2c0 .5522847-.44771525 1-1 1s-1-.4477153-1-1v-2c0-.5522847.44771525-1 1-1z"/><path d="m16.5 12h-11"/><path d="m3.5 12h-3"/><path d="m12.5 5c.5522847 0 1 .44771525 1 1v2c0 .55228475-.4477153 1-1 1s-1-.44771525-1-1v-2c0-.55228475.4477153-1 1-1z"/><path d="m11.5 7h-11"/><path d="m16.5 7h-3"/></g></svg>