<svg height="21" viewBox="0 0 21 21" width="21" xmlns="http://www.w3.org/2000/svg"><path d="m15.6893661 13.7425356.5-2c.1339487-.5357949-.191812-1.0787294-.7276069-1.2126781-.0793206-.0198302-.1607738-.0298575-.2425356-.0298575h-13.43844719c-.55228475 0-1 .4477153-1 1 0 .0817618.01002735.163215.0298575.2425356l.5 2c.11129175.445167.51127485.7574644.9701425.7574644h12.43844719c.4588676 0 .8588507-.3122974.9701425-.7574644zm-.1893661-5.2425356.5606576-1.68197288c.1746478-.52394332-.1085122-1.09026329-.6324555-1.26491107-.1023789-.03412629-.2096068-.05145569-.3175235-.0513167l-13.22209729.01713315c-.55228428.00071562-.99941904.44901061-.99870428 1.0012949 0 .10774719.01769263.21476369.05197848.31691043l.55814449 1.66286217m14-5 .3059335-1.83560101c.0907951-.54477032-.2772246-1.05999786-.8219949-1.15079291-.0543315-.00905524-.1093182-.01360608-.164399-.01360608h-12.63907918c-.55228475 0-1 .44771525-1 1 0 .05508086.00455084.11006756.01360608.16439899l.3059335 1.83560101" fill="none" stroke="currentColor" stroke-linecap="round" stroke-linejoin="round" transform="translate(2 3)"/></svg>