<svg height="21" viewBox="0 0 21 21" width="21" xmlns="http://www.w3.org/2000/svg"><g fill="none" fill-rule="evenodd" stroke="currentColor" stroke-linecap="round" stroke-linejoin="round" transform="translate(3 4)"><path d="m1.5 6.5h12v5c0 1.1045695-.8954305 2-2 2h-8c-1.1045695 0-2-.8954305-2-2z"/><path d="m7.5 3.5v10"/><path d="m4.5 3.5h3v-2c0-1.5-2.21895142-1.78104858-3-1s-.78104858 2.21895142 0 3zm6 0h-3v-2c0-1.5 2.21895142-1.78104858 3-1 .7810486.78104858.7810486 2.21895142 0 3zm-9 0h12c.5522847 0 1 .44771525 1 1v1c0 .55228475-.4477153 1-1 1h-12c-.55228475 0-1-.44771525-1-1v-1c0-.55228475.44771525-1 1-1z"/></g></svg>