<svg height="21" viewBox="0 0 21 21" width="21" xmlns="http://www.w3.org/2000/svg"><path d="m5 4h1c.55228475 0 1 .44771525 1 1v1c0 .55228475-.44771525 1-1 1h-1c-.55228475 0-1-.44771525-1-1v-1c0-.55228475.44771525-1 1-1zm0-4h1c.55228475 0 1 .44771525 1 1v1c0 .55228475-.44771525 1-1 1h-1c-.55228475 0-1-.44771525-1-1v-1c0-.55228475.44771525-1 1-1zm4 4h1c.5522847 0 1 .44771525 1 1v1c0 .55228475-.4477153 1-1 1h-1c-.55228475 0-1-.44771525-1-1v-1c0-.55228475.44771525-1 1-1zm0-4h1c.5522847 0 1 .44771525 1 1v1c0 .55228475-.4477153 1-1 1h-1c-.55228475 0-1-.44771525-1-1v-1c0-.55228475.44771525-1 1-1zm0 8h1c.5522847 0 1 .44771525 1 1v1c0 .5522847-.4477153 1-1 1h-1c-.55228475 0-1-.4477153-1-1v-1c0-.55228475.44771525-1 1-1zm-4 0h1c.55228475 0 1 .44771525 1 1v1c0 .5522847-.44771525 1-1 1h-1c-.55228475 0-1-.4477153-1-1v-1c0-.55228475.44771525-1 1-1zm-4-4h1c.55228475 0 1 .44771525 1 1v1c0 .55228475-.44771525 1-1 1h-1c-.55228475 0-1-.44771525-1-1v-1c0-.55228475.44771525-1 1-1zm0-4h1c.55228475 0 1 .44771525 1 1v1c0 .55228475-.44771525 1-1 1h-1c-.55228475 0-1-.44771525-1-1v-1c0-.55228475.44771525-1 1-1zm0 8h1c.55228475 0 1 .44771525 1 1v1c0 .5522847-.44771525 1-1 1h-1c-.55228475 0-1-.4477153-1-1v-1c0-.55228475.44771525-1 1-1z" fill="currentColor" fill-rule="evenodd" transform="translate(5 5)"/></svg>