<svg height="21" viewBox="0 0 21 21" width="21" xmlns="http://www.w3.org/2000/svg"><g fill="none" fill-rule="evenodd" stroke="currentColor" stroke-linecap="round" stroke-linejoin="round" transform="translate(4 3)"><path d="m1.25 6.25c.72440521-.14488104 1.44906675.24766687 1.72343208.93358019l.52656792 1.31641981v-6c0-.55228475.44771525-1 1-1s1 .44771525 1 1v-1.5c0-.55228475.44771525-1 1-1s1 .44771525 1 1v1c0-.55228475.44771525-1 1-1s1 .44771525 1 1v1.5c0-.55228475.44771525-1 1-1 .5522847 0 1 .44771525 1 1v8c0 2.209139-1.790861 4-4 4-2.3508274 0-4.39998311-1.5999324-4.9701425-3.88057l-.0298575-.11943-1.92991229-3.85982457c-.24048169-.48096339-.04553276-1.06581018.43543063-1.30629188.07740388-.03870194.15962204-.06691163.24448166-.08388355z"/><path d="m5.5 1.5v6"/><path d="m7.5 1.5v5"/><path d="m9.5 3.5v4"/></g></svg>