<svg height="21" viewBox="0 0 21 21" width="21" xmlns="http://www.w3.org/2000/svg"><g fill="none" fill-rule="evenodd" stroke="currentColor" stroke-linecap="round" stroke-linejoin="round" transform="translate(2.5 1.5)"><path d="m10 3h2.3406038c.4000282 0 .7615663.23839685.9191451.6060807l2.7402511 6.3939193v4c0 1.1045695-.8954305 2-2 2h-12c-1.1045695 0-2-.8954305-2-2v-4l2.74025113-6.3939193c.15757879-.36768385.51911692-.6060807.91914503-.6060807h2.34060384"/><path d="m11 6.086-3 2.914-3-2.914"/><path d="m8 0v9"/><path d="m0 10h4c.55228475 0 1 .4477153 1 1v1c0 .5522847.44771525 1 1 1h4c.5522847 0 1-.4477153 1-1v-1c0-.5522847.4477153-1 1-1h4"/></g></svg>