<svg height="21" viewBox="0 0 21 21" width="21" xmlns="http://www.w3.org/2000/svg"><g fill="none" fill-rule="evenodd" transform="translate(1 5)"><path d="m18.5 8.5v-6c0-1.1045695-.8954305-2-2-2h-14c-1.1045695 0-2 .8954305-2 2v6c0 1.1045695.8954305 2 2 2h14c1.1045695 0 2-.8954305 2-2z" stroke="currentColor" stroke-linecap="round" stroke-linejoin="round"/><g fill="currentColor"><circle cx="3.5" cy="2.5" r="1"/><circle cx="6.5" cy="2.5" r="1"/><circle cx="9.5" cy="2.5" r="1"/><circle cx="12.5" cy="2.5" r="1"/><circle cx="15.5" cy="2.5" r="1"/><circle cx="3.5" cy="4.5" r="1"/><circle cx="6.5" cy="4.5" r="1"/><circle cx="9.5" cy="4.5" r="1"/><circle cx="12.5" cy="4.5" r="1"/><circle cx="15.5" cy="4.5" r="1"/><circle cx="3.5" cy="6.5" r="1"/><circle cx="6.5" cy="6.5" r="1"/><circle cx="9.5" cy="6.5" r="1"/><circle cx="12.5" cy="6.5" r="1"/><circle cx="15.5" cy="6.5" r="1"/><circle cx="3.5" cy="8.5" r="1"/><circle cx="15.5" cy="8.5" r="1"/></g><path d="m6.5 8.5h6" stroke="currentColor" stroke-linecap="round" stroke-linejoin="round"/></g></svg>