<svg xmlns="http://www.w3.org/2000/svg" width="21" height="21" viewBox="0 0 21 21"><g fill="none" fill-rule="evenodd" stroke="currentColor" stroke-linecap="round" stroke-linejoin="round"><path d="M1.38757706,5.69087183 C0.839076291,5.14050909 0.5,4.38129902 0.5,3.54289344 C0.5,1.8623496 1.8623496,0.5 3.542893,0.5 L8.457107,0.5 C10.1376504,0.5 11.5,1.86235004 11.5,3.54289344 C11.5,5.22343727 10.1376504,6.5 8.457107,6.5 L6,6.5" transform="translate(3 6)"/><path d="M4.38757706,8.69087183 C3.83907629,8.14050909 3.5,7.38129902 3.5,6.54289344 C3.5,4.8623496 4.8623496,3.5 6.542893,3.5 L11.457107,3.5 C13.1376504,3.5 14.5,4.86235004 14.5,6.54289344 C14.5,8.22343727 13.1376504,9.5 11.457107,9.5 L9,9.5" transform="translate(3 6) rotate(-180 9 6.5)"/></g></svg>