<svg height="21" viewBox="0 0 21 21" width="21" xmlns="http://www.w3.org/2000/svg"><g fill="none" fill-rule="evenodd" transform="translate(4 1)"><path d="m2.5 8.5-.00586729-1.99475098c-.00728549-4.00349935 1.32800361-6.00524902 4.00586729-6.00524902 2.19134421 0 3.6093703 1.31907891 4 4m-8 4h8.0225317c1.1045695 0 2 .8954305 2 2 0 .0018783-.0000026.0037566-.0000079.0056349l-.0169048 6c-.0031058 1.1023652-.8976224 1.9943651-1.999992 1.9943651h-8.005627c-1.1045695 0-2-.8954305-2-2v-6c0-1.1045695.8954305-2 2-2z" stroke="#2a2e3b" stroke-linecap="round" stroke-linejoin="round"/><circle cx="6.5" cy="13.5" fill="#2a2e3b" r="1.5"/></g></svg>