<svg height="21" viewBox="0 0 21 21" width="21" xmlns="http://www.w3.org/2000/svg"><g fill="none" fill-rule="evenodd" stroke="#2a2e3b" stroke-linecap="round" stroke-linejoin="round" transform="translate(2 2)"><path d="m14.5.5h-12c-1.1045695 0-2 .8954305-2 2v12c0 1.1045695.8954305 2 2 2h12c1.1045695 0 2-.8954305 2-2v-12c0-1.1045695-.8954305-2-2-2z" transform="matrix(0 1 -1 0 17 0)"/><path d="m.5 12.5h10c1.1045695 0 2-.8954305 2-2v-10"/><path d="m.5 8.5h7c.55228475 0 1-.44771525 1-1v-7"/></g></svg>