<svg height="21" viewBox="0 0 21 21" width="21" xmlns="http://www.w3.org/2000/svg"><g fill="none" fill-rule="evenodd" stroke="currentColor" stroke-linecap="round" stroke-linejoin="round" transform="translate(3 2)"><path d="m12.5 7.5c0 .91813853-.2474698 1.7784774-.6793465 2.5179537m-1.4246464 1.5584561c-.81714521.5815728-1.81663493.9235902-2.8960071.9235902-2.76142375 0-5-2.2385763-5-5m2.19580617-4.95506382c.41696847-1.09403231 1.45627406-1.88418967 2.69335685-1.92992573l.11083698-.00409775c1.5967308-.05903257 2.9389922 1.18751813 2.9980248 2.78424894.0013167.0356141.0019752.07124949.0019752.10688793v3.99795043c0 .38785203-.0736015.75851351-.2075993 1.09877923"/><path d="m8.95666861 10.1232407c-.4313298.2400274-.92803148.3767593-1.45666861.3767593-1.65685425 0-3-1.34314575-3-3 0-.93326823 0-1.53336589 0-2"/><path d="m.5 1.5 14 14"/><path d="m7.5 12.5v4"/></g></svg>