<svg height="21" viewBox="0 0 21 21" width="21" xmlns="http://www.w3.org/2000/svg"><g fill="none" fill-rule="evenodd" stroke="currentColor" stroke-linecap="round" stroke-linejoin="round" transform="translate(3 3)"><path d="m2.5.5h10c1.1045695 0 2 .8954305 2 2v10c0 1.1045695-.8954305 2-2 2h-10c-1.1045695 0-2-.8954305-2-2v-10c0-1.1045695.8954305-2 2-2z"/><path d="m5.5 4.5h4c.5522847 0 1 .44771525 1 1v4c0 .5522847-.4477153 1-1 1h-4c-.55228475 0-1-.4477153-1-1v-4c0-.55228475.44771525-1 1-1z"/></g></svg>