<svg height="21" viewBox="0 0 21 21" width="21" xmlns="http://www.w3.org/2000/svg"><g fill="none" fill-rule="evenodd" stroke="currentColor" stroke-linecap="round" stroke-linejoin="round" transform="translate(-210 -1)"><g opacity=".3" transform="matrix(.96592583 .25881905 -.25881905 .96592583 214.136029 .477376)"><path d="m9 13c2.2190012 0 4-1.7631416 4-3.98214286 0-2.21900122-1.7809988-4.01785714-4-4.01785714-2.21900123 0-4 1.78099877-4 4 0 2.2190012 1.78099877 4 4 4z" transform="matrix(.96592583 -.25881905 .25881905 .96592583 -2.022704 2.636039)"/><g transform="matrix(.8660254 .5 -.5 .8660254 1.4558 4.066879)"><path d="m0 .5h2"/><path d="m16 .5h2"/></g><g transform="matrix(.96592583 -.25881905 .25881905 .96592583 .17726 10.84642)"><path d="m0 .5h2"/><path d="m16 .5h2"/></g><g transform="matrix(.5 -.8660254 .8660254 .5 4.066879 16.544042)"><path d="m0 .5h2"/><path d="m16 .5h2"/></g><g transform="matrix(-.25881905 -.96592583 .96592583 -.25881905 10.846233 17.822607)"><path d="m0 .5h2"/><path d="m16 .5h2"/></g></g><g><path d="m220.5 2.5v2"/><path d="m227 5-1.5 1.5"/><circle cx="220.5" cy="11.5" r="4"/><path d="m214 5 1.5 1.5"/><path d="m220.5 20.5v-2"/><path d="m227 18-1.5-1.5"/><path d="m214 18 1.5-1.5"/><path d="m211.5 11.5h2"/><path d="m227.5 11.5h2"/></g></g></svg>