<svg height="21" viewBox="0 0 21 21" width="21" xmlns="http://www.w3.org/2000/svg"><g fill="none" fill-rule="evenodd" stroke="#2a2e3b" stroke-linecap="round" stroke-linejoin="round" transform="translate(4 2)"><path d="m4 .5c0 1.1045695.8954305 2 2 2s2-.8954305 2-2l-.001-.01471863h2.501c.5522847 0 1 .44771525 1 1v13.01471863c0 .5522847-.4477153 1-1 1h-2.5c0-1.1045695-.8954305-2-2-2s-2 .8954305-2 2h-2.5c-.55228475 0-1-.4477153-1-1v-13.01471863c0-.55228475.44771525-1 1-1l2.50004961.00048215c-.00003306.00474159-.00004961.0094871-.00004961.01423648z"/><path d="m3 4.5h2"/><path d="m7 4.5h2"/><path d="m3 11.5h2"/><path d="m7 11.5h2"/></g></svg>