<svg height="21" viewBox="0 0 21 21" width="21" xmlns="http://www.w3.org/2000/svg"><g fill="none" fill-rule="evenodd" stroke="currentColor" stroke-linecap="round" stroke-linejoin="round" transform="translate(2 2)"><path d="m16.5 8.5v-6c0-1.1045695-.8954305-2-2-2h-6c-1.1045695 0-2 .8954305-2 2v6c0 1.1045695.8954305 2 2 2h6c1.1045695 0 2-.8954305 2-2z"/><path d="m4.5 6.50344846h-2.00001427c-1.1045695 0-2 .8954305-2 2v5.99943324c0 1.1045695.8954305 2 2 2h.00345627l6.00001428-.0103718c1.10321833-.0019065 1.99654372-.8967771 1.99654372-1.999997v-1.9925129"/><g transform="translate(2.502 9.5)"><path d="m2.998 1.003h-3"/><path d="m4.49841597 2.5c-.33333333.33333333-.66666667.66666667-1 1s-1.16666667.83333333-2.5 1.5"/><path d="m.99841597 1.00316806c.33333333 1.16613866.83333333 1.99894398 1.5 2.49841597s1.5.99894398 2.5 1.49841597"/></g><g transform="translate(8.5 2.5)"><path d="m3 0-3 6"/><path d="m3 0 3 6"/><path d="m3 2v4" transform="matrix(0 1 -1 0 7 1)"/></g></g></svg>