<svg height="21" viewBox="0 0 21 21" width="21" xmlns="http://www.w3.org/2000/svg"><g fill="none" fill-rule="evenodd" transform="translate(3 4)"><path d="m3.04312645.77339244c1.30458237-.50251803 2.79020688-.75708722 4.45687355-.76370756 1.66666667-.00645659 3.1522912.2481126 4.4568735.76370756 1.4533332.41523806 2.3707846 1.84683012 2.1409518 3.3407434l-1.0760143 6.99409286c-.3002042 1.9513268-1.9792025 3.3917713-3.95348683 3.3917713h-3.13664834c-1.97428433 0-3.65328268-1.4404445-3.95348679-3.3917713l-1.0760143-6.99409286c-.22983281-1.49391328.68761852-2.92550534 2.14095171-3.3407434z" stroke="currentColor" stroke-linecap="round" stroke-linejoin="round"/><path d="m7.5 6c3.5555556 0 5-1.5 5-2.5s-1.4444444-2.25-5-2.25c-3.55555556 0-5 1.25-5 2.25s1.44444444 2.5 5 2.5z" fill="currentColor"/></g></svg>