<svg height="21" viewBox="0 0 21 21" width="21" xmlns="http://www.w3.org/2000/svg"><g fill="none" fill-rule="evenodd" transform="translate(3 5)"><path d="m2.49278838.53409401 10.00000002-.03605833c1.1045623-.00398287 2.0032157.88821306 2.0071986 1.99277538.0000087.00240386.000013.00480774.000013.00721162v5.00197732c0 1.1045695-.8954305 2-2 2h-10c-1.1045695 0-2-.8954305-2-2v-4.965919c0-1.10175423.89104131-1.99601428 1.99278838-1.99998699z" stroke="currentColor" stroke-linecap="round" stroke-linejoin="round"/><path d="m9.46666667 4.6-2.66666667-2c-.2209139-.16568542-.53431458-.1209139-.7.1-.06491106.08654809-.1.19181489-.1.3v4c0 .27614237.22385763.5.5.5.10818511 0 .21345191-.03508894.3-.1l2.66666667-2c.2209139-.16568542.26568542-.4790861.1-.7-.02842713-.03790283-.06209717-.07157288-.1-.1z" fill="currentColor" fill-rule="nonzero"/><path d="m2.464 11.5h10.036" stroke="currentColor" stroke-linecap="round" stroke-linejoin="round"/></g></svg>