<svg height="21" viewBox="0 0 21 21" width="21" xmlns="http://www.w3.org/2000/svg"><g fill="none" fill-rule="evenodd" stroke="currentColor" stroke-linejoin="round" transform="translate(3 2)"><path d="m8.5 2.5 2 2v1c0 1.65685425-1.34314575 3-3 3-1.59768088 0-2.90366088-1.24891996-2.99490731-2.82372721l-.00509269-1.17627279z" stroke-linecap="round"/><path d="m2.5 10v-4.5c0-2.76142375 2.23857625-5 5-5 2.7614237 0 5 2.23857625 5 5v4.5"/><path d="m14.5 14.5v-.7281753c0-3.1864098-3.6862915-5.2718247-7-5.2718247s-7 2.0854149-7 5.2718247v.7281753c0 .5522847.44771525 1 1 1h12c.5522847 0 1-.4477153 1-1z" stroke-linecap="round"/></g></svg>