<svg height="21" viewBox="0 0 21 21" width="21" xmlns="http://www.w3.org/2000/svg"><g fill="none" fill-rule="evenodd" stroke="currentColor" stroke-linecap="round" stroke-linejoin="round" transform="translate(2 2)"><path d="m9.5 7.5v9l-5-5h-3c-.55228475 0-1-.4477153-1-1v-4c0-.55228475.44771525-1 1-1h3l1.5-1.5"/><path d="m7.521 2.479 1.979-1.979v5"/><path d="m3.5 1.5 12 12"/><path d="m11.5 6.5v1"/><path d="m13.7200616 11.7079223c-.3369299.4755068-1.0769504 1.0728661-2.2200616 1.7920777"/><path d="m11.5 9.5v1"/><path d="m14.5 10c0-.69729457 0-1.19729457 0-1.5 0-1.82842712-.8333333-3.32842712-2.5-4.5"/></g></svg>