<svg height="21" viewBox="0 0 21 21" width="21" xmlns="http://www.w3.org/2000/svg"><g fill="none" fill-rule="evenodd" stroke="currentColor" stroke-linecap="round" stroke-linejoin="round" transform="translate(3 3)"><path d="m.5 12.5v-10c0-1.1045695.8954305-2 2-2h10c1.1045695 0 2 .8954305 2 2v10c0 1.1045695-.8954305 2-2 2h-10c-1.1045695 0-2-.8954305-2-2z"/><path d="m12.5 12.5v-10c0-1.1045695-.8954305-2-2-2h2c1 0 2 .8954305 2 2v10c0 1.1045695-1 2-2 2h-2c1.1045695 0 2-.8954305 2-2z" fill="currentColor"/><path d="m7.5 10.5 3-3-3-3"/><path d="m10.5 7.5h-8"/></g></svg>